<svg width="40" height="40" viewBox="0 0 656 146" fill="none" xmlns="http://www.w3.org/2000/svg">
<path d="M110.479 57.4574C107.027 63.6356 103.225 69.62 99.7803 75.7982C94.8015 84.7231 89.4912 93.4605 84.532 102.379C79.8262 110.845 75.1204 119.324 70.2196 127.674C66.0403 134.789 60.1125 140.489 52.0139 143.255C47.6591 144.741 43.0573 145.336 38.436 145.4C32.9502 145.472 27.4645 145.413 21.9787 145.413C16.2135 145.413 10.4417 145.497 4.67647 145.388C0.0681677 145.304 -1.34227 144.218 1.38111 139.72C7.15936 130.175 12.5476 120.403 18.3129 110.851C23.8896 101.623 28.6799 91.9224 34.2957 82.7197C39.8139 73.6656 44.9552 64.4047 50.441 55.3376C55.3677 47.2012 59.95 38.858 64.7143 30.6311C68.3997 24.2719 72.163 17.9709 75.8223 11.6052C77.7203 8.29637 79.3257 4.83241 81.5876 1.73683C83.271 -0.557396 84.168 -0.628485 85.6694 1.82084C88.5423 6.51269 91.2787 11.2886 94.041 16.045C100.034 26.3464 105.825 36.7706 112.058 46.9233C114.697 51.2274 112.286 54.2325 110.479 57.4574Z" fill="#3C61E2"/>
<path d="M163.857 143.573C157.207 143.599 150.557 143.579 142.202 143.579C136.042 143.253 128.164 144.073 120.299 143.137C112.251 142.176 106.385 138.074 102.276 131.448C97.1877 123.245 97.3248 114.895 102.159 106.615C107.136 98.0852 112.186 89.6003 117.209 81.0898C118.947 78.1547 120.815 75.2901 122.389 72.2717C123.506 70.1248 124.702 70.7657 125.447 72.1627C128.236 77.3793 131.293 82.4548 134.285 87.5496C137.192 92.5098 140.301 97.3803 143.241 102.334C148.238 110.742 153.183 119.169 158.174 127.571C160.689 131.82 163.275 136.03 165.797 140.273C167.28 142.753 166.816 143.56 163.857 143.573Z" fill="#3C61E2"/>
<path d="M304.88 135.319H339.308L292.913 12.5195H253.146L206.936 135.319H241.363L247.623 116.724H298.621L304.88 135.319ZM273.03 40.1355L290.336 90.0284H255.908L273.03 40.1355Z" fill="#202238"/>
<path d="M347.642 135.319H375.994V12.5195H347.642V135.319Z" fill="#202238"/>
<path d="M456.564 135.319H484.916V46.3951H456.564V103.836C453.25 108.071 447.727 112.489 439.626 112.489C430.421 112.489 424.897 108.807 424.897 98.129V46.3951H396.545V109.728C396.545 126.113 405.566 137.528 425.818 137.528C440.731 137.528 451.041 130.9 456.564 124.64V135.319Z" fill="#202238"/>
<path d="M505.499 135.319H533.851V78.982C537.533 73.827 547.291 70.6972 554.655 70.6972C557.601 70.6972 559.994 71.0654 561.651 71.6177V44.1858C550.973 44.1858 539.743 50.4455 533.851 57.6256V46.3951H505.499V135.319Z" fill="#202238"/>
<path d="M627.009 135.319H655.361V79.7184C655.361 52.1024 635.294 44.1858 613.937 44.1858C600.314 44.1858 585.033 48.2362 573.618 57.9938L583.744 75.8522C590.924 69.7766 600.129 66.4627 608.967 66.4627C620.381 66.4627 627.009 71.6177 627.009 79.3502V90.5807C621.67 83.9528 611.176 80.2707 599.393 80.2707C585.769 80.2707 568.831 86.7144 568.831 108.255C568.831 128.322 585.769 137.528 599.393 137.528C610.808 137.528 621.486 133.109 627.009 126.481V135.319ZM627.009 112.489C624.063 116.724 617.435 118.933 611.176 118.933C603.627 118.933 597 115.619 597 108.623C597 101.627 603.627 98.3131 611.176 98.3131C617.435 98.3131 624.063 100.522 627.009 104.573V112.489Z" fill="#202238"/>
</svg>
